# xmcd
#
# Track frame offsets:
#	150
#	15736
#	29364
#	42564
#	60264
#	77855
#	103723
#	120577
#	137202
#	155946
#	173101
#	188054
#	207811
#	222490
#
# Disc length: 3192 seconds
#
# Revision: 0
# Processed by: cddbd v1.5.2PL0 Copyright (c) Steve Scherf et al.
# Submitted via: audiograbber 1.83.01
#
DISCID=c70c760e
DTITLE=bratfisch - Unter Wasser
DYEAR=2014
DGENRE=Folkmusik aus Österreich
TTITLE0=Nachtleben
TTITLE1=Annas Freylach
TTITLE2=Insolvent
TTITLE3=Lavapies
TTITLE4=Ausblick auf Wien
TTITLE5=En passant
TTITLE6=Jesenje lisce
TTITLE7=Windstaerke 5
TTITLE8=Wann i a Tropfen warat
TTITLE9=Djavolja varos
TTITLE10=Spektakolo
TTITLE11=Beau rivage
TTITLE12=Lagunenreggae
TTITLE13=Unter Wasser
EXTD=wo landest
EXTT0=
EXTT1=
EXTT2=
EXTT3=
EXTT4=
EXTT5=
EXTT6=
EXTT7=
EXTT8=
EXTT9=
EXTT10=
EXTT11=
EXTT12=
EXTT13=
PLAYORDER=
